<?xml version="1.0" encoding="iso-8859-1"?>
<!-- Generator: Adobe Illustrator 19.0.0, SVG Export Plug-In . SVG Version: 6.00 Build 0)  -->
<svg xmlns="http://www.w3.org/2000/svg" xmlns:xlink="http://www.w3.org/1999/xlink" version="1.1" id="Capa_1" x="0px" y="0px" viewBox="0 0 512.001 512.001" style="enable-background:new 0 0 512.001 512.001;" xml:space="preserve" width="512px" height="512px">
<g>
	<g>
		<path d="M385.674,394.575v-3.155c0.003-15.891-12.924-28.818-28.813-28.818h-47.367V221.737    c17.895-3.549,31.43-19.363,31.43-38.284c0-18.922-13.535-34.736-31.43-38.284V7.604c0-4.199-3.404-7.604-7.604-7.604    c-0.805,0-1.61,0.009-2.415,0.019l-0.126,0.002c-29.754,0.422-59.093,8.554-84.844,23.517    c-24.953,14.5-46.189,35.145-61.411,59.704c-2.213,3.57-1.113,8.257,2.457,10.469c3.569,2.213,8.257,1.112,10.469-2.457    c28.094-45.324,75.755-73.402,128.266-75.866V145.17c-17.895,3.549-31.43,19.363-31.43,38.284    c0,18.922,13.535,34.736,31.43,38.284v140.865h-41.284c-5.247-0.026-10.175-2.076-13.887-5.787    c-3.735-3.735-5.792-8.703-5.792-13.988c0-13.731-6.81-26.348-18.219-33.754c-45.79-29.691-73.06-79.952-72.948-134.45    c0.043-21.022,4.164-41.488,12.251-60.828c1.62-3.874-0.207-8.329-4.082-9.949c-3.872-1.62-8.328,0.208-9.949,4.082    c-8.865,21.198-13.383,43.627-13.43,66.663c-0.123,59.685,29.74,114.728,79.879,147.24c7.069,4.588,11.288,12.437,11.288,20.996    c0,9.348,3.639,18.134,10.246,24.742c0.342,0.342,0.692,0.67,1.045,0.996c-6.86,5.272-11.293,13.552-11.293,22.853v3.155    c0,8.385,3.601,15.941,9.336,21.211c-5.734,5.271-9.336,12.827-9.336,21.211v3.155c0,15.888,12.927,28.815,28.815,28.815h4.899    c3.679,24.328,24.729,43.034,50.066,43.034c25.337,0,46.387-18.707,50.066-43.034h4.899c15.889,0,28.816-12.927,28.816-28.815    v-3.155c0-8.385-3.601-15.941-9.336-21.211C382.073,410.516,385.674,402.959,385.674,394.575z M309.495,160.879    c9.419,3.181,16.222,12.095,16.222,22.574c0,10.479-6.803,19.393-16.222,22.575V160.879z M294.287,206.026    c-9.419-3.18-16.222-12.094-16.222-22.574s6.803-19.393,16.222-22.575V206.026z M301.896,496.792    c-16.926,0-31.11-11.934-34.6-27.826h69.2C333.005,484.858,318.823,496.792,301.896,496.792z M370.47,394.573    c0,7.503-6.104,13.607-13.608,13.607H338.94c-4.2,0-7.604,3.405-7.604,7.604s3.404,7.604,7.604,7.604h17.922    c7.503,0,13.608,6.104,13.608,13.607v3.155c0,7.503-6.104,13.607-13.608,13.607H246.93c-7.503,0-13.607-6.104-13.607-13.607    v-3.155c0-7.503,6.104-13.607,13.607-13.607h66.661c4.2,0,7.604-3.405,7.604-7.604s-3.404-7.604-7.604-7.604H246.93    c-7.503,0-13.607-6.104-13.607-13.607v-3.155c0-7.503,6.104-13.607,13.607-13.607h5.971c0.068,0,0.136,0.005,0.204,0.005h48.787    c0.033,0,0.065-0.004,0.098-0.005h54.872c7.503,0,13.608,6.104,13.608,13.607V394.573z" fill="#fff"/>
	</g>
</g>
<g>
	<g>
		<path d="M470.453,139.912l-41.207-7.411c-4.869-12.161-11.428-23.504-19.559-33.818l14.199-39.441    c1.246-3.463-0.165-7.321-3.353-9.161l-62.464-36.063c-3.189-1.841-7.237-1.133-9.611,1.679L318.66,50.978    c-2.709,3.209-2.305,8.005,0.904,10.716c3.208,2.709,8.005,2.305,10.714-0.903l25.694-30.423l51.45,29.704l-13.501,37.503    c-0.918,2.551-0.409,5.397,1.335,7.471c9.231,10.974,16.388,23.348,21.271,36.778c0.926,2.545,3.135,4.406,5.8,4.885l39.174,7.046    v59.401l-39.176,7.054c-2.664,0.481-4.874,2.341-5.799,4.885c-4.878,13.412-12.035,25.788-21.273,36.781    c-1.744,2.073-2.252,4.919-1.333,7.468l13.5,37.492l-51.45,29.704l-25.693-30.415c-2.71-3.209-7.507-3.612-10.715-0.902    c-3.208,2.71-3.612,7.508-0.902,10.716l29.797,35.272c1.489,1.762,3.634,2.698,5.812,2.698c1.298,0,2.608-0.333,3.798-1.019    l62.464-36.063c3.188-1.84,4.599-5.699,3.353-9.161l-14.199-39.432c8.134-10.327,14.695-21.668,19.56-33.817l41.208-7.42    c3.622-0.653,6.257-3.804,6.257-7.483v-72.116C476.712,143.715,474.076,140.563,470.453,139.912z" fill="#fff"/>
	</g>
</g>
<g>
	<g>
		<path d="M326.977,111.625c-3.964-1.384-8.301,0.709-9.685,4.674c-1.384,3.965,0.709,8.302,4.673,9.684    c24.396,8.514,40.789,31.612,40.789,57.475c0,25.862-16.392,48.959-40.789,57.475c-3.964,1.384-6.058,5.72-4.673,9.685    c1.094,3.136,4.035,5.1,7.179,5.1c0.83,0,1.676-0.137,2.506-0.427c30.496-10.645,50.985-39.511,50.985-71.833    S357.473,122.268,326.977,111.625z" fill="#fff"/>
	</g>
</g>
<g>
	<g>
		<path d="M100.331,135.614l-55.953-11.13c-4.124-0.821-8.122,1.856-8.941,5.975c-0.819,4.119,1.855,8.122,5.975,8.941l55.953,11.13    c0.501,0.098,1,0.147,1.491,0.147c3.554,0,6.73-2.504,7.45-6.122C107.125,140.436,104.45,136.433,100.331,135.614z" fill="#fff"/>
	</g>
</g>
<g>
	<g>
		<path d="M151.236,41.224L108.37,3.63c-3.157-2.769-7.962-2.455-10.731,0.703c-2.768,3.157-2.454,7.961,0.704,10.731l42.865,37.595    c1.444,1.266,3.231,1.887,5.01,1.887c2.113,0,4.217-0.876,5.72-2.59C154.707,48.797,154.393,43.992,151.236,41.224z" fill="#fff"/>
	</g>
</g>
<g>
	<g>
		<path d="M170.388,333.4c-3.157-2.768-7.961-2.454-10.731,0.704l-37.597,42.875c-2.769,3.157-2.453,7.962,0.704,10.731    c1.443,1.265,3.231,1.887,5.01,1.887c2.114,0,4.217-0.876,5.72-2.59l37.597-42.875C173.861,340.973,173.546,336.168,170.388,333.4    z" fill="#fff"/>
	</g>
</g>
<g>
	<g>
		<path d="M113.029,247.568c-1.349-3.976-5.667-6.104-9.646-4.756l-53.988,18.33c-3.976,1.35-6.105,5.669-4.756,9.645    c1.076,3.166,4.032,5.162,7.2,5.162c0.81,0,1.634-0.131,2.445-0.406l53.988-18.33C112.25,255.863,114.379,251.545,113.029,247.568    z" fill="#fff"/>
	</g>
</g>
<g>
</g>
<g>
</g>
<g>
</g>
<g>
</g>
<g>
</g>
<g>
</g>
<g>
</g>
<g>
</g>
<g>
</g>
<g>
</g>
<g>
</g>
<g>
</g>
<g>
</g>
<g>
</g>
<g>
</g>
</svg>
