<?xml version="1.0"?>
<svg xmlns="http://www.w3.org/2000/svg" viewBox="0 -3 512.00002 512" width="512px" height="512px"><path d="m504.5 212.855469h-1.960938l-7.320312-67.109375c-.84375-7.746094-7.355469-13.585938-15.148438-13.585938h-3.046874v-.296875c0-25.722656-20.929688-46.648437-46.65625-46.648437h-39.625l-4.214844-6.933594c-6.433594-10.582031-18.125-17.160156-30.511719-17.160156h-4.101563v-53.621094c0-4.140625-3.359374-7.5-7.5-7.5-4.144531 0-7.5 3.359375-7.5 7.5v53.625h-35.46875v-53.625c0-4.140625-3.359374-7.5-7.5-7.5-4.144531 0-7.503906 3.359375-7.503906 7.5v53.625h-35.464844v-53.625c0-4.140625-3.359374-7.5-7.5-7.5-4.144531 0-7.5 3.359375-7.5 7.5v53.625h-35.46875v-53.625c0-4.140625-3.359374-7.5-7.5-7.5-4.140624 0-7.5 3.359375-7.5 7.5v53.625h-4.914062c-11.929688 0-23.019531 5.914062-29.664062 15.820312l-5.539063 8.265626h-30.765625c-35.148438 0-63.746094 28.589843-63.746094 63.734374v92.589844c0 13.988282 11.382813 25.371094 25.375 25.371094h64.6875v58.367188h-71.523437c-4.140625 0-7.5 3.355468-7.5 7.5 0 4.140624 3.359375 7.5 7.5 7.5h102.355469v127.195312h-140.992188c-8.703125 0-15.78125-7.078125-15.78125-15.777344v-107.894531c0-1.941406 1.582031-3.523437 3.523438-3.523437h17.144531c4.144531 0 7.5-3.355469 7.5-7.5 0-4.140626-3.355469-7.5-7.5-7.5h-17.144531c-10.214844 0-18.523438 8.3125-18.523438 18.523437v107.894531c0 16.972656 13.808594 30.78125 30.78125 30.78125h9.355469v8.117188c0 8.238281 6.699219 14.9375 14.9375 14.9375h85.929687c8.238282 0 14.9375-6.699219 14.9375-14.9375v-8.117188h164.949219v8.117188c0 8.238281 6.699219 14.9375 14.9375 14.9375h85.929687c8.238282 0 14.9375-6.699219 14.9375-14.9375v-8.117188h9.546876c16.972656 0 30.78125-13.808594 30.78125-30.78125v-64.941406h10.804687c8.539063 0 15.484375-6.945312 15.484375-15.484375v-57.214844c0-8.535156-6.945312-15.480469-15.484375-15.480469h-10.804687v-70.710937h27.476562c4.140625 0 7.5-3.359375 7.5-7.5 0-4.144531-3.359375-7.503906-7.5-7.503906zm-42.476562-80.996094v193.414063h-110.109376v-171.960938h15.09375c6.820313 0 12.371094-5.546875 12.371094-12.371094v-40.730468h50.988282c17.457031.003906 31.65625 14.199218 31.65625 31.648437zm-169.734376 193.414063v-171.960938h15.097657c6.820312 0 12.367187-5.546875 12.367187-12.371094v-40.730468h17.160156v225.0625zm-59.625 0v-133.179688c0-4.144531-3.355468-7.5-7.5-7.5-4.140624 0-7.5 3.355469-7.5 7.5v68.214844c-6.664062-5.253906-15.0625-8.402344-24.1875-8.402344h-20.4375v-98.59375h15.097657c6.820312 0 12.371093-5.546875 12.371093-12.371094v-40.730468h17.15625v62.546874c0 4.140626 3.359376 7.5 7.5 7.5 4.144532 0 7.5-3.359374 7.5-7.5v-9.445312h15.097657c6.820312 0 12.371093-5.546875 12.371093-12.371094v-40.730468h17.15625v225.0625zm-47.15625-225.058594v38.097656h-12.464843v-38.097656zm59.621094 0v38.097656h-12.464844v-38.097656zm59.625 0v38.097656h-12.464844v-38.097656zm59.625 0v38.097656h-12.464844v-38.097656zm-183.785156-24.09375h175.421875c6.839844 0 13.316406 3.460937 17.140625 9.089844h-209.707031c3.859375-5.691407 10.257812-9.089844 17.144531-9.089844zm-114.714844 165.414062v-92.589844c0-26.871093 21.867188-48.730468 48.746094-48.730468h43.417969v78.195312h-11.851563c-12.324218 0-22.351562 10.027344-22.351562 22.351563v51.144531h-47.585938c-5.722656 0-10.375-4.652344-10.375-10.371094zm72.960938-40.773437c0-4.054688 3.296875-7.351563 7.351562-7.351563h11.851563v58.496094h-19.199219v-51.144531zm17.101562 66.144531h37.535156c13.308594 0 24.132813 10.820312 24.132813 24.125v34.242188h-61.667969zm-14.933594 223.621094-85.871093.0625v-8.117188h85.835937zm321.015626-38.835938c0 8.699219-7.078126 15.777344-15.78125 15.777344h-45.726563c-4.140625 0-7.5 3.359375-7.5 7.5 0 4.144531 3.359375 7.503906 7.5 7.503906h21.207031l.035156 8.054688-85.867187.0625v-8.117188h33.957031c4.140625 0 7.5-3.359375 7.5-7.503906 0-4.140625-3.359375-7.5-7.5-7.5h-183.074218v-127.195312h275.25zm25.804687-138.125c.265625 0 .480469.21875.480469.484375v57.214844c0 .265625-.214844.480469-.480469.480469h-10.804687v-58.179688zm-10.804687-100.710937v-65.695313h3.042968c.125 0 .226563.089844.242188.210938l7.136718 65.484375zm0 0" fill="#fff"/><path d="m130.339844 140.644531c4.140625 0 7.5-3.359375 7.5-7.5 0-4.144531-3.359375-7.5-7.5-7.5h-26.949219c-4.144531 0-7.5 3.355469-7.5 7.5 0 4.140625 3.355469 7.5 7.5 7.5zm0 0" fill="#fff"/></svg>
