<?xml version="1.0" encoding="iso-8859-1"?>
<!-- Generator: Adobe Illustrator 19.0.0, SVG Export Plug-In . SVG Version: 6.00 Build 0)  -->
<svg xmlns="http://www.w3.org/2000/svg" xmlns:xlink="http://www.w3.org/1999/xlink" version="1.1" id="Capa_1" x="0px" y="0px" viewBox="0 0 480 480" style="enable-background:new 0 0 480 480;" xml:space="preserve" width="512px" height="512px">
<g>
	<g>
		<path d="M408,64h-24V40c-0.026-22.08-17.92-39.974-40-40H88C65.92,0.026,48.026,17.92,48,40v152c0,13.255,10.745,24,24,24    s24-10.745,24-24v-8c0-4.418,3.582-8,8-8s8,3.582,8,8v40c0,13.255,10.745,24,24,24s24-10.745,24-24v-24c0-4.418,3.582-8,8-8    s8,3.582,8,8v32c0,13.255,10.745,24,24,24c2.732-0.026,5.438-0.524,8-1.472V272h-8c-4.418,0-8,3.582-8,8v25.472    c-9.555,3.378-15.958,12.394-16,22.528v96c0.042,10.134,6.445,19.15,16,22.528V472c0,4.418,3.582,8,8,8h32c4.418,0,8-3.582,8-8    v-25.472c9.555-3.378,15.958-12.394,16-22.528v-96c-0.042-10.134-6.445-19.15-16-22.528V280c0-4.418-3.582-8-8-8h-8v-19.736    c0.002-3.615,2.429-6.78,5.92-7.72l10.08-2.72V248c0,13.255,10.745,24,24,24s24-10.745,24-24v-19.096l16-4.312V232    c0,13.255,10.745,24,24,24s24-10.745,24-24v-20.328l62.232-16.76C424.714,192.093,432,182.59,432,171.736V88    C432,74.745,421.255,64,408,64z M64,40c0-13.255,10.745-24,24-24h256c13.255,0,24,10.745,24,24v64c0,13.255-10.745,24-24,24H88    c-13.255,0-24-10.745-24-24V40z M208,288h16v16h-16V288z M224,464h-16v-16h16V464z M232,320c4.418,0,8,3.582,8,8v96    c0,4.418-3.582,8-8,8h-32c-4.418,0-8-3.582-8-8v-96c0-4.418,3.582-8,8-8H232z M240,225.248l-14.232,3.816    c-0.616,0.168-1.176,0.424-1.768,0.64V184c0-4.418,3.582-8,8-8s8,3.582,8,8V225.248z M272,248c0,4.418-3.582,8-8,8s-8-3.582-8-8    v-10.488l16-4.312V248z M288,212.312V208c0-4.418,3.582-8,8-8s8,3.582,8,8L288,212.312z M336,232c0,4.418-3.582,8-8,8    s-8-3.582-8-8v-11.712L336,216V232z M336,176v23.408l-16.424,4.416c-2.475-13.022-15.037-21.572-28.059-19.097    C280.306,186.858,272.145,196.589,272,208v8.64l-16,4.304V184c0-13.255-10.745-24-24-24s-24,10.745-24,24v48c0,4.418-3.582,8-8,8    s-8-3.582-8-8v-32c0-13.255-10.745-24-24-24s-24,10.745-24,24v24c0,4.418-3.582,8-8,8s-8-3.582-8-8v-40c0-13.255-10.745-24-24-24    s-24,10.745-24,24v8c0,4.418-3.582,8-8,8s-8-3.582-8-8v-56.208c6.884,5.293,15.317,8.177,24,8.208h256    c8.683-0.031,17.116-2.915,24-8.208V144c0,4.418-3.582,8-8,8C346.745,152,336,162.745,336,176z M416,171.736    c-0.002,3.615-2.429,6.78-5.92,7.72L352,195.096V176c0-4.418,3.582-8,8-8c13.255,0,24-10.745,24-24V80h24c4.418,0,8,3.582,8,8    V171.736z" fill="#fff"/>
	</g>
</g>
<g>
</g>
<g>
</g>
<g>
</g>
<g>
</g>
<g>
</g>
<g>
</g>
<g>
</g>
<g>
</g>
<g>
</g>
<g>
</g>
<g>
</g>
<g>
</g>
<g>
</g>
<g>
</g>
<g>
</g>
</svg>
