<svg id="Layer_1" data-name="Layer 1" xmlns="http://www.w3.org/2000/svg" viewBox="0 0 521.66 718.96"><defs><style>.cls-1{fill:#f2f2f2;}</style></defs><title>logo_light</title><path class="cls-1" d="M0,635.35H30.57q.43,9,6.74,13.48,6.75,4.5,18,4.5a29,29,0,0,0,13.93-3.15q5.4-3.13,5.4-8.54,0-8.08-18.89-12.14a85.64,85.64,0,0,1-12.13-2.7Q19.77,621,11.69,612.87q-9-8.1-9-21.58a35.8,35.8,0,0,1,13-28.32q13.5-10.34,35.07-10.34,23.37,0,37.31,10.34,13,11.24,13.94,29.22H82.72q-8.55,0-13-7.64l-3.6-3.6q-5.38-4.05-14.83-4.05-9,0-13.49,2.7a9.09,9.09,0,0,0-4,8.09q0,7.2,23.37,12.14a46.56,46.56,0,0,0,4.72,1.35,17.64,17.64,0,0,0,3.83.45q22.92,5.85,31.91,13.49,8.53,8.08,8.55,21.58,0,19.78-14.39,30.56-13.48,9.9-40.46,9.9-25.62,0-38.21-10.34Q0,656.47,0,636.7Z"/><path class="cls-1" d="M153.12,703.68A15.35,15.35,0,0,1,137.83,719H122.55V607q0-31.46,18.43-42.93a74.38,74.38,0,0,1,40-11.46,64.62,64.62,0,0,1,22.7,4.27q11.48,4.27,18.21,12.36,13.48,17.54,13.49,45,0,28.32-13.49,45.85-13.49,17.08-34.62,17.09a45.67,45.67,0,0,1-19.78-4,33.78,33.78,0,0,1-14.38-13.94Zm51.25-88.11q0-17.54-6.75-27t-19.33-9.44q-12.14,0-18.88,9.44-6.3,8.55-6.29,27,0,17.08,6.74,25.62,6.75,9.43,19.33,9.44a21.45,21.45,0,0,0,18.43-9.44Q204.37,631.75,204.37,615.57Z"/><path class="cls-1" d="M328.72,670a55.39,55.39,0,0,1-20,6.07,178.82,178.82,0,0,1-18.66,1.13q-16.19,0-28.32-8.77t-12.14-29q0-18.89,11-27t28.09-10.79a26.34,26.34,0,0,0,5.4-.67c2.09-.45,4.5-.83,7.19-1.13q19.79-2.7,19.78-11.69,0-6.74-7-8.76a46.26,46.26,0,0,0-12.81-2,33,33,0,0,0-11.24,1.8,12.25,12.25,0,0,0-7.19,6.75H252.74A34.58,34.58,0,0,1,265.33,563q12.14-10.34,34.61-10.34,25.17,0,37.77,8.54,13,9,13,25.17v40.91q0,18-6.51,28.1T328.72,670Zm-7.2-55.29q-6.3,3.15-17.53,5.84l-10.34,2.25Q285.57,625,282,628.6a18.31,18.31,0,0,0-3.15,9.89q0,6.75,4.05,10.79,4,3.6,11.69,3.6,12.58,0,19.78-7.19t7.19-19.78Z"/><path class="cls-1" d="M471,674.91H455.31A14.65,14.65,0,0,1,440,659.62V598.48q0-10.79-6.51-15.73a23.58,23.58,0,0,0-14.61-5,22.62,22.62,0,0,0-14.39,5q-6.3,4.95-6.29,15.73v76.43H366.75V604.78q0-30.57,16-40.91A69.71,69.71,0,0,1,418,552.63,67.68,67.68,0,0,1,454.41,563Q471,573.32,471,604.78Z"/><path class="cls-1" d="M490.2,520.26h16.18a15.35,15.35,0,0,1,15.28,15.28V545H490.2Zm0,35.07h16.18a15.33,15.33,0,0,1,15.28,15.28v104.3H490.2Z"/><path class="cls-1" d="M193.31,238.21H236q.61,12.56,9.41,18.81,9.4,6.28,25.09,6.27,11.28,0,19.44-4.39,7.53-4.38,7.53-11.91,0-11.3-26.35-16.94a120,120,0,0,1-16.93-3.76q-33.26-8.14-44.53-19.44-12.56-11.29-12.55-30.11,0-23.84,18.19-39.51,18.81-14.43,48.92-14.43,32.61,0,52.06,14.43,18.18,15.68,19.44,40.76h-27q-11.91,0-18.18-10.66c-1.68-1.66-3.36-3.34-5-5q-7.53-5.64-20.7-5.64-12.56,0-18.82,3.76-5.64,3.76-5.64,11.29,0,10,32.61,16.94a64.68,64.68,0,0,0,6.59,1.88,24.44,24.44,0,0,0,5.33.63q32,8.15,44.53,18.81,11.91,11.29,11.92,30.11,0,27.6-20.07,42.65-18.83,13.8-56.45,13.8-35.75,0-53.31-14.43-18.21-14.42-18.19-42Z"/><path class="cls-1" d="M267.32,0C153.68,0,61.56,92.12,61.56,205.76s61.17,158.49,205.76,317c144.59-158.5,205.76-203.35,205.76-317S381,0,267.32,0Zm0,350.35A144.59,144.59,0,1,1,411.91,205.76,144.58,144.58,0,0,1,267.32,350.35Z"/></svg>